<!--?xml version="1.0" standalone="no"?-->

<svg version="1.0" xmlns="http://www.w3.org/2000/svg" width="100%" height="100%" viewBox="0 0 1200.000000 1200.000000" preserveAspectRatio="xMidYMid meet">

<g transform="translate(0.000000,1200.000000) scale(0.100000,-0.100000)" fill="#000000" stroke="none">
<path d="M5720 10870 c-1164 -91 -2209 -702 -2854 -1670 -346 -518 -550 -1091
-618 -1730 -17 -166 -14 -594 6 -765 53 -459 175 -874 372 -1266 198 -396 404
-681 723 -999 667 -665 1532 -1044 2481 -1089 1277 -59 2492 533 3238 1579
636 892 851 2027 586 3095 -131 526 -381 1027 -733 1465 -99 123 -328 358
-461 473 -572 495 -1272 802 -2035 892 -158 19 -547 27 -705 15z m690 -90
c753 -93 1416 -381 1980 -859 428 -363 782 -845 1005 -1367 169 -394 266 -825
291 -1286 l6 -128 -530 0 -530 0 -7 118 c-22 365 -108 690 -270 1017 -402 814
-1160 1345 -2071 1451 -254 30 -592 11 -861 -47 -565 -122 -1104 -460 -1478
-924 -100 -123 -231 -330 -303 -477 -161 -329 -251 -673 -269 -1035 l-6 -133
-530 0 -530 0 6 150 c39 889 385 1721 982 2359 647 693 1472 1090 2435 1175
83 7 594 -3 680 -14z m-452 -1244 l-3 -118 -72 -18 c-85 -22 -133 -45 -199
-98 -60 -47 -97 -100 -133 -188 l-27 -67 -80 -27 c-159 -54 -281 -129 -406
-249 -87 -82 -177 -209 -223 -313 -17 -37 -32 -68 -35 -68 -3 0 -130 125 -283
278 l-278 278 68 59 c446 395 975 619 1548 654 60 4 114 4 118 1 4 -4 6 -60 5
-124z m398 104 c452 -67 875 -247 1223 -523 103 -82 193 -166 189 -178 -4 -12
-490 -529 -498 -529 -3 0 -16 21 -29 48 -65 133 -197 290 -330 390 -94 71
-229 142 -347 181 l-89 30 -27 66 c-35 87 -72 140 -133 188 -63 50 -139 86
-216 100 l-59 12 0 116 c0 63 2 118 4 120 7 7 225 -8 312 -21z m-209 -320 c65
-22 134 -70 169 -116 27 -35 75 -126 70 -132 -2 -1 -48 5 -102 14 -65 11 -157
17 -269 17 -151 1 -214 -5 -359 -29 -37 -7 -38 -6 -31 17 13 47 81 134 132
170 59 41 141 69 228 79 67 8 88 5 162 -20z m153 -315 c47 -9 110 -20 140 -25
121 -18 297 -98 418 -190 185 -139 342 -361 373 -525 19 -100 7 -246 -27 -345
-32 -92 -98 -205 -114 -195 -6 3 -10 27 -10 53 0 97 -54 155 -143 154 -54 0
-148 -35 -154 -57 -1 -5 6 -21 16 -34 l19 -24 50 21 c63 27 86 28 112 2 14
-14 20 -33 20 -65 0 -85 -52 -145 -144 -166 -54 -12 -212 -9 -233 4 -8 5 -5
22 11 60 85 191 71 434 -36 615 -45 76 -159 189 -238 235 -83 48 -203 86 -294
93 -90 7 -197 -19 -316 -77 -70 -34 -101 -58 -176 -133 -73 -73 -99 -108 -133
-176 -87 -176 -90 -359 -10 -539 16 -35 29 -65 29 -66 0 -12 -117 -27 -180
-23 -139 8 -220 70 -220 168 0 25 6 55 14 65 18 25 73 24 126 -3 l40 -20 20
28 c11 16 20 31 20 35 0 3 -24 17 -52 30 -62 29 -134 33 -179 9 -39 -19 -68
-84 -69 -146 0 -27 -4 -48 -8 -48 -12 0 -65 76 -96 138 -64 127 -79 313 -37
452 84 274 311 515 586 621 79 31 246 70 380 88 99 14 393 5 495 -14z m-1840
-410 l284 -284 1 -163 c0 -150 3 -170 28 -244 28 -84 81 -175 140 -241 29 -32
35 -46 35 -87 3 -115 54 -191 178 -262 l54 -31 -146 -86 -147 -87 -718 0 -719
0 0 93 c0 455 195 1017 492 1419 80 109 209 258 223 258 5 0 138 -128 295
-285z m3455 204 c262 -299 456 -665 553 -1040 48 -182 81 -414 82 -556 l0 -63
-725 0 -726 0 -119 66 -120 66 68 33 c130 62 192 145 192 257 0 52 4 63 40
110 52 68 114 195 135 277 22 88 30 222 17 305 l-11 68 262 279 c144 154 266
279 272 278 5 0 42 -36 80 -80z m-1707 -292 c242 -84 407 -311 405 -557 -1
-99 -14 -162 -50 -243 l-26 -57 -71 41 c-104 59 -267 139 -284 139 -10 0 -12
7 -8 25 4 14 2 25 -3 25 -4 0 -22 3 -38 6 -24 5 -31 2 -41 -20 -6 -15 -23 -31
-37 -36 -26 -10 -95 -1 -149 20 l-29 11 41 34 c46 40 92 124 92 169 0 131 -94
213 -240 209 -65 -2 -97 -13 -162 -55 -53 -33 -56 -42 -28 -76 l19 -23 43 29
c94 65 195 67 255 7 35 -35 48 -72 15 -42 -27 24 -104 57 -136 57 -46 0 -102
-21 -140 -52 -44 -36 -45 -48 -7 -70 26 -14 31 -15 42 -2 40 49 118 57 174 19
35 -25 38 -25 56 -9 11 10 22 14 25 11 16 -15 -12 -63 -66 -117 -60 -59 -71
-87 -50 -120 7 -11 -10 -24 -78 -60 -48 -26 -112 -61 -143 -78 l-56 -32 -31
67 c-73 161 -69 312 11 473 45 92 179 226 270 270 156 76 281 87 425 37z
m-243 -761 l35 -15 0 -95 0 -96 -47 -35 c-62 -45 -230 -128 -314 -155 -81 -26
-184 -37 -264 -30 -49 4 -60 8 -59 23 2 20 0 21 -25 5 -15 -9 -29 -8 -67 6
-103 38 -173 101 -194 177 -11 37 -13 89 -4 89 3 0 22 -13 42 -30 62 -49 114
-63 237 -63 138 0 168 10 343 109 140 80 233 123 265 124 10 0 33 -7 52 -14z
m287 -27 c34 -17 110 -59 168 -92 130 -75 194 -98 292 -104 128 -9 230 18 294
79 l32 30 7 -30 c8 -37 -10 -107 -38 -146 -29 -41 -101 -83 -192 -112 -103
-33 -233 -34 -349 -5 -90 24 -242 93 -333 153 l-63 40 0 108 c0 77 4 110 13
114 27 12 109 -5 169 -35z m-190 -273 c10 -7 15 -16 11 -19 -9 -10 -56 -8 -72
2 -11 7 -10 11 5 20 25 14 35 13 56 -3z m-109 -83 c41 -21 134 -20 175 1 31
16 34 16 115 -22 75 -36 166 -69 242 -88 17 -4 79 -10 140 -13 l109 -6 47
-280 c26 -154 45 -282 43 -284 -2 -3 -57 22 -121 55 -78 39 -118 55 -121 46
-2 -6 -8 -12 -13 -12 -4 0 -6 7 -3 15 5 13 -30 15 -280 15 -248 0 -286 -2
-286 -15 0 -9 -9 -15 -25 -15 l-25 0 0 -215 c0 -186 2 -215 15 -215 9 0 18 -7
21 -15 5 -12 31 -15 150 -15 l144 0 0 -44 c0 -51 13 -46 -175 -66 -138 -15
-145 -17 -145 -40 0 -11 -6 -20 -14 -20 -10 0 -16 -14 -18 -42 l-3 -43 -217
-3 c-248 -3 -228 6 -207 -94 16 -73 53 -145 102 -195 l41 -43 -233 0 -233 0
-84 62 -84 62 0 62 c0 42 43 258 135 680 74 341 138 631 140 645 l6 25 112 -4
c95 -3 126 0 210 22 53 14 139 45 190 70 50 24 98 45 105 45 7 1 27 -6 45 -16z
m-756 -185 c-3 -13 -61 -278 -129 -590 l-123 -568 -473 0 -472 0 27 48 c16 27
111 190 213 364 l185 316 380 225 c209 124 384 225 389 226 4 1 6 -9 3 -21z
m2102 -235 l453 -250 258 -373 259 -374 -16 -30 c-25 -52 -137 -236 -144 -236
-3 0 -103 144 -223 320 -120 176 -221 318 -226 315 -4 -3 -10 2 -14 10 -4 12
-24 15 -88 15 l-83 0 -280 140 -281 140 -43 263 c-23 144 -45 275 -49 291 -4
23 -2 28 9 24 8 -3 218 -118 468 -255z m481 -24 c0 -83 -4 -149 -8 -147 -41
17 -521 285 -522 291 0 4 119 7 265 7 l265 0 0 -151z m763 44 c-3 -195 -51
-446 -129 -673 -43 -127 -101 -266 -108 -259 -2 2 -103 148 -225 323 l-221
320 0 191 c0 106 3 195 7 198 4 4 158 6 342 5 l336 -3 -2 -102z m1143 92 c8
-19 -13 -315 -32 -445 -114 -808 -474 -1531 -1049 -2105 -545 -546 -1246 -908
-1990 -1029 -241 -40 -365 -50 -615 -49 -253 0 -393 11 -619 49 -957 161
-1824 705 -2389 1501 -405 570 -636 1229 -677 1936 l-7 117 529 0 530 0 12
-136 c46 -522 242 -1018 561 -1419 143 -180 374 -395 565 -527 885 -611 2057
-620 2955 -22 149 99 254 186 406 338 454 455 715 1040 760 1704 l7 102 524 0
c450 0 524 -2 529 -15z m-4936 -24 c0 -5 -8 -12 -17 -15 -10 -4 -96 -53 -191
-109 l-173 -102 -157 -267 c-86 -147 -158 -265 -160 -263 -2 1 0 172 4 379 l7
376 336 3 c185 1 339 3 344 5 4 1 7 -2 7 -7z m-765 -18 c-2 -10 -6 -213 -9
-452 l-6 -434 -34 -58 c-25 -43 -31 -60 -23 -68 9 -9 9 -14 0 -19 -9 -6 -13
-55 -15 -162 l-3 -155 -51 80 c-224 352 -364 773 -390 1183 l-7 102 271 0
c252 0 270 -1 267 -17z m3014 -523 l440 -219 1 -388 1 -388 -83 80 c-129 125
-425 413 -627 610 -111 110 -202 208 -232 253 l-50 72 -108 0 -109 0 -52 -65
c-51 -64 -52 -65 -101 -65 l-49 0 0 165 0 165 265 0 265 0 439 -220z m-575
-82 c9 -12 16 -25 16 -28 0 -3 -47 -5 -105 -5 -58 0 -105 1 -105 3 0 2 8 14
18 27 15 22 25 24 89 25 63 0 74 -3 87 -22z m329 -352 l248 -242 80 -469 c43
-258 79 -477 79 -488 0 -42 -384 -190 -625 -240 -204 -43 -298 -52 -535 -52
-304 0 -509 31 -775 116 -187 60 -435 170 -435 193 1 27 56 231 63 234 4 2
125 -56 268 -128 l260 -131 29 32 30 31 0 269 0 269 220 0 220 0 0 -30 0 -30
-191 0 -190 0 3 -37 3 -38 228 -3 227 -2 0 -55 0 -55 -215 0 -215 0 0 -35 0
-35 165 0 165 0 0 -40 0 -40 -180 0 -180 0 0 -35 0 -35 145 0 145 0 0 -50 0
-50 39 0 40 0 3 48 c2 38 7 48 23 50 27 4 47 52 43 104 -3 42 -2 43 30 46 17
2 32 7 32 13 0 5 9 9 20 9 19 0 20 7 20 110 0 103 -1 110 -20 110 -11 0 -20 4
-20 9 0 5 -10 11 -22 13 -17 2 -24 11 -26 31 l-3 27 283 -2 283 -3 0 -273 0
-272 38 0 37 0 0 284 0 283 92 79 c50 44 95 82 101 85 5 4 5 14 -1 25 -6 11
-13 27 -16 37 -5 16 -25 17 -240 17 l-234 0 51 53 c58 59 99 134 120 217 l14
55 -236 5 -236 5 -3 28 c-2 15 -1 27 3 27 15 0 273 31 293 36 14 3 22 12 22
24 0 13 7 20 20 20 18 0 20 7 20 60 l0 60 73 -1 72 0 248 -243z m1067 -97
c113 -166 213 -314 222 -328 l18 -27 -67 -85 c-65 -82 -260 -289 -272 -289 -4
0 -51 42 -104 93 l-98 92 -6 423 -6 422 54 0 55 0 204 -301z m-1440 6 c0 -23
-61 -117 -102 -156 -72 -71 -151 -94 -323 -94 -102 0 -142 4 -184 19 -68 24
-137 85 -167 151 -44 93 -78 85 376 85 220 0 400 -2 400 -5z m-1446 -79 l1
-48 -390 -109 c-214 -60 -429 -120 -477 -133 l-88 -25 0 185 0 184 477 -2 476
-3 1 -49z m245 -276 l191 -145 0 -257 c0 -165 -4 -258 -10 -258 -5 0 -220 107
-477 239 -258 131 -519 264 -582 295 -62 32 -111 60 -108 62 12 12 773 221
783 215 7 -3 98 -71 203 -151z m2258 -222 l223 -217 -83 -64 c-158 -123 -335
-235 -341 -214 -5 16 -136 799 -136 811 0 11 65 -49 337 -316z m-837 192 l-55
-50 -566 0 -565 0 -62 46 c-34 25 -62 48 -62 50 0 2 307 4 683 4 l682 -1 -55
-49z m-2182 -242 c185 -94 342 -175 348 -180 8 -6 3 -41 -18 -128 -17 -66 -34
-120 -38 -120 -17 0 -252 164 -341 239 -111 92 -351 339 -343 352 14 24 81 -4
392 -163z" class="svg-elem-1"></path>
<path d="M6257 10583 c-3 -5 -8 -45 -12 -89 l-7 -82 -51 -6 c-100 -14 -165
-67 -192 -158 -40 -135 3 -236 120 -283 l60 -24 -4 -48 c-10 -107 -10 -108 29
-108 l35 0 10 75 10 75 58 6 c79 9 128 43 163 115 22 46 28 71 28 123 -1 109
-43 170 -144 204 l-45 15 4 59 c10 125 9 128 -26 131 -17 2 -33 -1 -36 -5z
m-51 -408 c-12 -96 -24 -165 -31 -165 -21 0 -76 41 -96 72 -16 27 -19 45 -16
93 2 34 12 76 21 93 21 40 70 72 111 72 l31 0 -20 -165z m151 135 c51 -31 68
-65 67 -135 -1 -102 -59 -175 -138 -175 -25 0 -26 3 -21 33 7 45 35 269 35
284 0 18 20 16 57 -7z" class="svg-elem-2"></path>
<path d="M5171 10437 c-24 -12 -24 -14 -22 -133 2 -117 2 -122 -23 -151 -15
-17 -40 -36 -57 -42 -30 -10 -30 -10 -58 52 -15 34 -36 84 -46 110 -10 27 -25
51 -32 54 -19 7 -63 -13 -63 -29 1 -7 52 -132 113 -278 106 -249 115 -265 138
-262 53 6 53 20 -1 146 -27 65 -50 121 -50 126 0 11 57 30 92 30 44 0 76 -21
157 -104 40 -42 79 -76 87 -76 17 0 64 21 64 29 0 11 -184 188 -207 200 -12 6
-36 11 -53 11 l-31 0 21 30 c27 37 35 117 25 224 -7 80 -12 85 -54 63z" class="svg-elem-3"></path>
<path d="M5633 10390 c-58 -12 -98 -35 -127 -72 -84 -112 -38 -325 81 -374 77
-32 190 -6 247 56 62 69 69 196 16 300 -37 73 -124 109 -217 90z m96 -75 c42
-21 74 -95 75 -170 1 -94 -43 -146 -124 -147 -76 -1 -123 56 -136 162 -4 40
-2 66 9 92 28 67 111 97 176 63z" class="svg-elem-4"></path>
<path d="M6713 10239 c-76 -37 -135 -145 -137 -250 -1 -45 4 -64 26 -96 31
-47 104 -87 186 -103 58 -11 85 -3 96 26 9 24 -10 34 -64 34 -102 1 -175 66
-167 148 3 24 9 47 13 52 5 5 70 -16 144 -46 147 -59 147 -59 169 5 15 47 14
117 -4 151 -8 16 -30 40 -47 53 -68 51 -147 60 -215 26z m164 -64 c13 -9 29
-28 34 -43 10 -25 6 -88 -5 -100 -3 -2 -53 15 -110 38 -87 36 -104 46 -96 59
10 20 50 57 70 64 23 10 79 0 107 -18z" class="svg-elem-5"></path>
<path d="M6194 8280 c-41 -13 -123 -69 -141 -96 -12 -19 -10 -22 20 -39 33
-18 33 -18 60 9 35 35 86 56 137 56 42 0 107 -27 129 -54 17 -21 31 -20 60 5
l24 20 -27 28 c-59 62 -183 95 -262 71z" class="svg-elem-6"></path>
<path d="M6196 8155 c-22 -8 -55 -29 -74 -48 l-34 -34 34 -21 33 -21 28 27
c24 22 37 27 82 27 42 0 59 -5 79 -24 l25 -23 32 23 32 22 -36 33 c-56 51
-127 65 -201 39z" class="svg-elem-7"></path>
<path d="M3090 6205 c-105 -30 -176 -87 -200 -161 -26 -79 11 -202 76 -253 32
-25 35 -25 60 -6 19 15 18 16 -9 36 -29 22 -54 63 -68 113 -30 104 98 209 254
209 65 0 96 -17 135 -74 20 -28 23 -43 19 -89 -2 -30 -6 -61 -8 -69 -6 -23 28
-24 50 -2 17 17 21 34 21 80 0 168 -149 266 -330 216z" class="svg-elem-8"></path>
<path d="M8560 6100 c-12 -29 -11 -32 69 -119 44 -48 88 -95 97 -102 15 -12
-1 -15 -121 -25 -145 -11 -165 -19 -165 -67 0 -16 5 -18 33 -14 17 3 98 11
178 18 l145 12 85 -33 c46 -18 89 -34 95 -37 6 -2 16 8 23 23 16 36 8 42 -99
83 -85 33 -85 34 -200 162 -63 71 -118 129 -121 129 -4 0 -12 -13 -19 -30z" class="svg-elem-9"></path>
<path d="M3300 5801 c-91 -28 -203 -111 -227 -168 -32 -77 -3 -194 64 -265 64
-67 179 -75 294 -22 125 59 187 141 176 234 -11 93 -73 183 -149 214 -39 17
-115 20 -158 7z m181 -97 c40 -37 59 -82 59 -136 0 -38 -5 -47 -53 -94 -91
-88 -217 -119 -288 -71 -37 24 -79 97 -79 135 0 96 155 207 278 199 42 -3 59
-10 83 -33z" class="svg-elem-10"></path>
<path d="M8399 5667 c-37 -24 -131 -172 -126 -197 2 -14 220 -145 381 -230 65
-34 67 -35 81 -16 8 11 15 25 15 30 0 6 -44 35 -98 65 -53 30 -99 56 -101 58
-11 8 52 83 75 89 25 6 98 2 190 -12 38 -6 44 -4 59 20 11 16 14 31 9 36 -16
16 -221 35 -247 23 -24 -11 -25 -10 -31 35 -8 55 -19 72 -66 101 -46 27 -98
27 -141 -2z m120 -73 c36 -30 41 -75 15 -127 -31 -60 -31 -60 -103 -21 -36 20
-70 39 -74 44 -12 11 28 84 59 109 36 28 66 26 103 -5z" class="svg-elem-11"></path>
<path d="M3516 5248 c-113 -84 -205 -158 -206 -164 0 -18 38 -47 52 -38 7 4
48 34 91 67 43 32 80 57 81 55 27 -36 101 -135 107 -141 8 -11 49 10 49 24 0
6 -21 38 -47 72 -25 34 -50 67 -55 73 -6 8 15 29 60 63 38 28 72 51 75 51 2 0
30 -34 61 -75 57 -76 74 -87 96 -60 10 12 0 31 -60 110 -40 52 -78 100 -85
105 -10 8 -66 -28 -219 -142z" class="svg-elem-12"></path>
<path d="M8120 5275 c-45 -58 -80 -111 -77 -119 5 -11 346 -286 385 -310 18
-11 37 8 123 120 60 78 70 96 59 109 -22 26 -36 17 -99 -65 -34 -44 -66 -80
-70 -80 -12 0 -141 101 -141 110 0 4 25 39 55 78 52 66 53 70 36 86 -10 9 -20
16 -23 16 -3 0 -29 -31 -59 -70 -30 -38 -58 -69 -63 -70 -7 0 -52 35 -119 91
-5 4 21 44 57 90 62 78 65 84 49 101 -9 10 -19 18 -23 18 -4 0 -44 -47 -90
-105z" class="svg-elem-13"></path>
<path d="M3755 4930 c-177 -177 -179 -179 -160 -200 10 -11 23 -20 29 -20 6 0
46 35 89 78 l78 77 64 -70 c55 -60 66 -68 82 -59 32 20 25 38 -42 104 l-65 64
62 63 62 63 72 -71 c73 -72 96 -81 111 -43 7 18 -162 194 -187 194 -8 0 -96
-81 -195 -180z" class="svg-elem-14"></path>
<path d="M7852 4978 c-81 -80 -131 -136 -128 -145 13 -33 38 -25 91 27 l53 52
136 -140 c75 -77 145 -151 157 -166 24 -31 40 -33 64 -6 17 19 16 20 -10 52
-15 18 -87 94 -160 169 l-134 135 57 57 c48 48 55 60 46 75 -6 9 -17 18 -25
19 -8 2 -74 -56 -147 -129z" class="svg-elem-15"></path>
<path d="M4051 4666 c-83 -107 -151 -202 -151 -210 0 -16 197 -176 217 -176 7
0 17 9 23 20 9 17 0 27 -75 86 -47 37 -84 70 -83 73 9 20 104 140 111 141 4 0
40 -25 79 -57 67 -53 72 -55 84 -38 8 10 14 22 14 26 0 6 -94 84 -134 111 -6
4 10 32 39 70 27 35 50 65 51 67 2 1 41 -27 89 -64 71 -55 88 -65 100 -55 8 7
15 18 15 26 0 13 -201 174 -219 174 -5 0 -78 -88 -160 -194z" class="svg-elem-16"></path>
<path d="M7637 4786 c-123 -44 -171 -162 -101 -246 37 -43 89 -56 168 -42 104
19 141 16 165 -14 27 -34 27 -74 -1 -109 -25 -32 -91 -64 -130 -65 -36 0 -42
-13 -19 -41 18 -23 21 -23 66 -11 148 39 217 177 141 277 -39 50 -88 61 -193
42 -117 -22 -163 -3 -163 66 0 35 60 85 110 93 50 8 55 15 29 42 -23 25 -22
25 -72 8z" class="svg-elem-17"></path>
<path d="M4391 4419 c-67 -116 -121 -219 -121 -228 0 -25 229 -154 247 -139
28 23 12 43 -65 86 -42 23 -83 47 -91 51 -11 7 -5 25 29 87 24 44 45 81 46 83
2 2 40 -17 86 -43 77 -44 83 -46 95 -29 7 9 12 21 10 27 -2 5 -36 28 -77 51
-41 24 -75 47 -75 51 0 17 70 134 80 134 6 0 48 -23 95 -50 85 -49 110 -52
110 -11 0 17 -206 141 -234 141 -8 0 -66 -89 -135 -211z" class="svg-elem-18"></path>
<path d="M7225 4534 c-55 -19 -111 -68 -136 -117 -46 -89 -8 -244 84 -344 72
-78 162 -91 265 -39 130 66 164 190 93 341 -34 73 -88 136 -135 159 -41 19
-117 19 -171 0z m153 -73 c58 -41 122 -170 122 -245 0 -37 -31 -89 -72 -119
-41 -30 -119 -34 -162 -8 -36 23 -84 89 -112 156 -24 57 -16 146 17 181 58 63
147 78 207 35z" class="svg-elem-19"></path>
<path d="M5128 4333 c-62 -70 -318 -427 -311 -433 27 -25 52 -20 80 16 15 20
37 47 48 60 l20 24 103 -32 102 -32 0 -47 c0 -83 9 -107 42 -114 16 -4 31 -5
34 -3 2 3 -3 128 -11 279 -8 151 -15 275 -15 276 0 2 -62 23 -70 23 -4 0 -14
-8 -22 -17z m38 -331 c-8 -7 -166 40 -166 49 0 5 35 56 78 114 l77 106 8 -132
c4 -72 5 -134 3 -137z" class="svg-elem-20"></path>
<path d="M6715 4324 c-43 -13 -83 -28 -87 -32 -7 -7 14 -85 113 -404 16 -54
34 -98 39 -98 5 0 20 4 34 9 l24 10 -34 111 c-20 62 -33 115 -30 118 3 3 30 7
59 10 l54 4 56 -63 c30 -35 66 -77 79 -92 23 -28 25 -28 57 -15 l34 14 -62 77
c-66 81 -105 117 -127 117 -8 0 -14 5 -14 10 0 6 5 10 10 10 18 0 50 64 50
100 0 79 -62 141 -140 139 -19 0 -71 -11 -115 -25z m156 -63 c55 -55 29 -126
-58 -155 -26 -9 -50 -16 -54 -16 -4 0 -17 31 -28 70 -12 38 -24 76 -27 84 -4
11 7 19 43 30 71 22 91 19 124 -13z" class="svg-elem-21"></path>
<path d="M5456 4251 c-3 -5 -19 -120 -36 -257 -31 -261 -30 -267 15 -262 18 3
22 19 42 173 12 94 22 192 22 220 1 27 5 45 9 40 5 -6 48 -108 97 -227 48
-120 93 -222 99 -226 22 -18 63 -22 75 -9 11 14 73 496 64 510 -2 4 -17 7 -32
7 l-28 0 -22 -182 c-11 -101 -21 -193 -21 -205 0 -13 -4 -23 -10 -23 -5 0 -10
5 -10 12 0 13 -134 346 -157 393 -9 17 -21 33 -27 37 -16 11 -74 10 -80 -1z" class="svg-elem-22"></path>
<path d="M6040 4223 c-36 -2 -69 -8 -73 -12 -8 -8 20 -499 30 -514 8 -13 173
1 233 19 58 17 123 83 139 140 15 54 14 152 -3 208 -38 127 -129 172 -326 159z
m170 -75 c68 -34 95 -90 95 -193 0 -88 -17 -131 -66 -167 -25 -19 -163 -47
-175 -36 -3 3 -9 68 -14 145 -5 76 -11 166 -14 200 -6 70 -6 70 79 72 35 1 65
-6 95 -21z" class="svg-elem-23"></path>
<path d="M8770 3454 c-47 -31 -137 -81 -200 -111 -455 -219 -481 -233 -534
-286 -59 -59 -130 -172 -153 -244 -12 -37 -17 -116 -22 -333 l-6 -285 -28 -52
c-32 -62 -85 -125 -98 -117 -5 3 -9 15 -9 28 0 39 -60 146 -94 167 -62 40
-131 6 -162 -80 -10 -25 -32 -83 -51 -129 -36 -89 -42 -154 -18 -188 22 -33
81 -56 133 -54 69 4 71 3 78 -35 17 -95 -14 -124 -277 -256 -182 -91 -219
-113 -219 -130 0 -20 4 -21 58 -16 85 8 290 45 345 63 40 13 52 24 76 65 32
57 96 214 111 274 5 22 35 74 66 115 66 86 104 164 138 282 31 109 45 227 55
484 10 242 20 280 87 327 22 15 147 76 278 137 261 120 372 187 457 277 73 77
114 154 80 153 -3 0 -44 -25 -91 -56z" class="svg-elem-24"></path>
<path d="M5028 2873 c-16 -4 -18 -19 -18 -124 0 -108 -2 -119 -18 -119 -55 0
-126 -33 -177 -83 -61 -59 -85 -122 -85 -217 0 -159 85 -259 242 -285 l37 -6
3 -97 3 -97 45 0 45 0 3 95 c3 99 8 110 52 110 43 0 124 45 162 89 96 112 90
323 -12 415 -46 41 -91 62 -155 71 l-45 7 0 119 c0 88 -3 119 -12 119 -7 0
-22 2 -33 4 -11 2 -28 2 -37 -1z m-18 -533 l0 -210 -27 0 c-42 0 -108 45 -129
87 -14 28 -19 60 -19 125 0 80 2 89 30 130 23 33 42 47 80 60 28 9 53 17 58
18 4 0 7 -94 7 -210z m188 183 c59 -28 93 -101 91 -198 -1 -52 -14 -96 -39
-131 -22 -31 -81 -64 -112 -64 l-28 0 0 210 0 210 28 -6 c15 -4 42 -13 60 -21z" class="svg-elem-25"></path>
<path d="M3517 2823 c-16 -4 -17 -29 -15 -386 l3 -382 45 0 45 0 3 173 c2 138
5 174 17 178 7 3 39 1 69 -6 75 -15 111 -57 161 -186 69 -180 58 -164 110
-164 28 0 48 5 51 13 5 15 -88 256 -118 306 -12 18 -40 45 -63 60 l-43 27 28
16 c15 8 39 31 53 49 24 33 117 257 117 284 0 18 -50 28 -81 17 -19 -8 -30
-29 -57 -108 -56 -170 -89 -209 -191 -221 l-51 -6 0 165 c0 163 0 166 -22 172
-25 6 -34 6 -61 -1z" class="svg-elem-26"></path>
<path d="M6203 2676 c-40 -46 -75 -90 -78 -99 -14 -36 144 -157 206 -157 21 0
174 169 162 180 -27 26 -205 160 -211 159 -4 0 -39 -38 -79 -83z" class="svg-elem-27"></path>
<path d="M4266 2616 c-85 -32 -138 -93 -162 -186 -31 -121 1 -267 71 -329 47
-41 98 -56 186 -55 136 1 221 69 255 204 38 149 -12 297 -119 352 -54 28 -175
35 -231 14z m170 -87 c60 -29 87 -87 88 -188 0 -141 -54 -211 -164 -211 -97 0
-144 44 -163 153 -32 189 93 317 239 246z" class="svg-elem-28"></path>
<path d="M5660 2617 c-19 -6 -55 -32 -81 -57 -58 -56 -79 -119 -79 -234 1
-133 40 -209 130 -254 47 -23 67 -27 135 -26 82 0 148 14 177 36 21 17 30 49
18 68 -8 12 -16 12 -62 -5 -75 -28 -187 -27 -224 1 -46 34 -67 70 -72 123 l-5
51 191 0 c219 0 209 -5 197 99 -15 132 -103 212 -229 210 -34 -1 -77 -6 -96
-12z m161 -83 c34 -17 57 -53 65 -103 l7 -41 -147 0 c-140 0 -146 1 -146 20 0
32 25 83 53 109 44 40 107 46 168 15z" class="svg-elem-29"></path>
<path d="M6785 2480 c-11 -4 -28 -17 -38 -28 -27 -30 -109 -308 -102 -342 13
-59 75 -90 178 -90 50 0 59 -3 68 -23 26 -56 -37 -165 -133 -229 -97 -67 -307
-117 -573 -137 -361 -28 -752 -34 -1525 -23 -749 11 -1036 23 -1389 61 -96 10
-120 5 -133 -28 -15 -40 7 -167 37 -213 52 -78 80 -83 576 -104 360 -14 472
-15 830 -5 228 6 567 11 755 11 483 0 735 23 1038 97 201 48 284 90 392 197
155 155 231 351 222 579 -3 96 -6 111 -38 173 -35 68 -66 95 -120 107 -14 3
-34 2 -45 -3z" class="svg-elem-30"></path>
</g>
</svg>
