<svg width="400" height="400" viewBox="0 0 400 400" fill="none" xmlns="http://www.w3.org/2000/svg">
  <rect width="400" height="400" fill="#F3F4F6"/>
  <path d="M200 120C171.716 120 148.889 142.827 148.889 171.111V177.778H151.111C156.635 177.778 161.111 182.254 161.111 187.778V248.889C161.111 254.412 156.635 258.889 151.111 258.889H148.889V264.444C148.889 280.603 161.952 293.667 178.111 293.667H221.889C238.048 293.667 251.111 280.603 251.111 264.444V258.889H248.889C243.365 258.889 238.889 254.412 238.889 248.889V187.778C238.889 182.254 243.365 177.778 248.889 177.778H251.111V171.111C251.111 142.827 228.284 120 200 120Z" fill="#9CA3AF"/>
  <circle cx="185" cy="195" r="8" fill="#6B7280"/>
  <circle cx="215" cy="195" r="8" fill="#6B7280"/>
  <path d="M175 225C175 225 185 235 200 235C215 235 225 225 225 225" stroke="#6B7280" stroke-width="4" stroke-linecap="round"/>
  <text x="200" y="330" font-family="Arial, sans-serif" font-size="16" fill="#6B7280" text-anchor="middle">No Image Available</text>
</svg>
